<?xml version="1.0" encoding="utf-8"?><svg xmlns="http://www.w3.org/2000/svg" xmlns:xlink="http://www.w3.org/1999/xlink"><symbol viewBox="0 0 512 512" id="clock" xmlns="http://www.w3.org/2000/svg"><path d="M256 0C114.836 0 0 114.836 0 256s114.836 256 256 256 256-114.836 256-256S397.164 0 256 0zm121.75 388.414a21.277 21.277 0 01-15.082 6.254 21.27 21.27 0 01-15.082-6.254L240.918 281.75a21.237 21.237 0 01-6.25-15.082V128c0-11.797 9.555-21.332 21.332-21.332s21.332 9.535 21.332 21.332v129.836L377.75 358.25c8.34 8.344 8.34 21.824 0 30.164zm0 0"/></symbol><symbol viewBox="0 0 512 512" id="email" xmlns="http://www.w3.org/2000/svg"><path d="M480 80H32C14.336 80 0 94.336 0 112v18.208l256 108.416 256-108.448V112c0-17.664-14.336-32-32-32z"/><path d="M262.24 270.72c-1.984.864-4.128 1.28-6.24 1.28s-4.256-.416-6.24-1.28L0 164.96V400c0 17.664 14.336 32 32 32h448c17.664 0 32-14.336 32-32V164.96L262.24 270.72z"/></symbol><symbol viewBox="0 0 512 512" id="facebook" xmlns="http://www.w3.org/2000/svg"><path d="M288 176v-64c0-17.664 14.336-32 32-32h32V0h-64c-53.024 0-96 42.976-96 96v80h-64v80h64v256h96V256h64l32-80h-96z"/></symbol><symbol viewBox="0 0 512 512" id="instagram" xmlns="http://www.w3.org/2000/svg"><path d="M437 0H75C33.648 0 0 33.648 0 75v362c0 41.352 33.648 75 75 75h362c41.352 0 75-33.648 75-75V75c0-41.352-33.648-75-75-75zM257 390c-74.441 0-135-60.559-135-135s60.559-135 135-135 135 60.559 135 135-60.559 135-135 135zm150-240c-24.813 0-45-20.188-45-45s20.188-45 45-45 45 20.188 45 45-20.188 45-45 45zm0 0"/><path d="M407 90c-8.277 0-15 6.723-15 15s6.723 15 15 15 15-6.723 15-15-6.723-15-15-15zm-150 60c-57.89 0-105 47.11-105 105s47.11 105 105 105 105-47.11 105-105-47.11-105-105-105zm0 0"/></symbol><symbol viewBox="0 0 64 64" id="left-quote" xmlns="http://www.w3.org/2000/svg"><path d="M50.63 26.226c-.13-1.394-.031-5.182 3.598-10.45a1 1 0 00-.116-1.274c-1.48-1.48-2.396-2.413-3.038-3.066-.845-.862-1.23-1.254-1.795-1.766a1.002 1.002 0 00-1.328-.013c-6.326 5.504-13.351 16.877-12.334 30.81.595 8.182 6.563 14.121 14.19 14.121 7.825 0 14.192-6.366 14.192-14.192 0-7.55-5.925-13.742-13.37-14.17zm-.824 26.362c-6.549 0-11.677-5.158-12.195-12.265-1.144-15.672 8.172-25.85 10.986-28.546.274.271.588.59 1.05 1.06.556.566 1.318 1.342 2.47 2.498-4.405 6.787-3.574 11.623-3.21 12.316.173.33.528.551.9.551 6.723 0 12.192 5.47 12.192 12.194 0 6.722-5.47 12.192-12.193 12.192zM15.114 26.226c-.13-1.39-.035-5.175 3.598-10.45a1 1 0 00-.116-1.274c-1.477-1.477-2.392-2.41-3.033-3.062-.848-.864-1.235-1.257-1.799-1.77a1.004 1.004 0 00-1.328-.014C6.111 15.16-.916 26.531.099 40.468c.598 8.181 6.566 14.12 14.192 14.12 7.827 0 14.194-6.366 14.194-14.192 0-7.551-5.926-13.744-13.371-14.17zm-.823 26.362c-6.547 0-11.678-5.158-12.198-12.266v.001c-1.14-15.674 8.175-25.851 10.99-28.546.275.271.59.591 1.052 1.063.556.566 1.317 1.34 2.467 2.495-4.405 6.788-3.574 11.623-3.21 12.315.173.33.528.552.9.552 6.723 0 12.193 5.47 12.193 12.194 0 6.722-5.47 12.192-12.194 12.192z"/></symbol><symbol viewBox="0 0 35.219 35.219" id="pointer" xmlns="http://www.w3.org/2000/svg"><path d="M17.612 0C11.005 0 5.648 5.321 5.648 11.885c0 3.358 3.294 9.374 3.294 9.374l8.229 13.96 8.586-13.797s3.814-5.74 3.814-9.537C29.572 5.321 24.216 0 17.612 0zm-.056 18.431a6.848 6.848 0 01-6.849-6.853 6.845 6.845 0 016.849-6.846 6.85 6.85 0 010 13.699z"/></symbol><symbol viewBox="0 0 64 64" id="right-quote" xmlns="http://www.w3.org/2000/svg"><path d="M14.193 9.412C6.367 9.412.001 15.778.001 23.604c0 7.55 5.925 13.742 13.37 14.17.128 1.392.031 5.18-3.599 10.45a1 1 0 00.117 1.274 424.7 424.7 0 013.046 3.075c.84.855 1.224 1.246 1.786 1.756a.997.997 0 001.328.014C22.374 48.84 29.4 37.467 28.384 23.532c-.596-8.182-6.564-14.12-14.19-14.12zm1.21 42.81c-.273-.268-.584-.585-1.042-1.05a417.05 417.05 0 00-2.478-2.507c4.405-6.789 3.573-11.623 3.209-12.317a1.036 1.036 0 00-.899-.55c-6.722 0-12.192-5.47-12.192-12.194 0-6.723 5.47-12.192 12.192-12.192 6.55 0 11.678 5.158 12.197 12.264 1.142 15.674-8.173 25.85-10.988 28.546zM63.9 23.532v-.001c-.597-8.18-6.566-14.12-14.191-14.12-7.826 0-14.193 6.367-14.193 14.193 0 7.55 5.925 13.742 13.37 14.17.13 1.39.032 5.177-3.599 10.45a1 1 0 00.116 1.274c1.48 1.48 2.396 2.413 3.038 3.066.845.861 1.23 1.254 1.795 1.766a1.002 1.002 0 001.328.012c6.326-5.504 13.352-16.876 12.336-30.81zm-12.982 28.69a95.14 95.14 0 01-1.05-1.06c-.556-.566-1.317-1.341-2.47-2.497 4.405-6.79 3.574-11.623 3.21-12.317a1.04 1.04 0 00-.899-.55c-6.724 0-12.193-5.47-12.193-12.194 0-6.723 5.47-12.192 12.193-12.192 6.548 0 11.678 5.158 12.197 12.265 1.142 15.671-8.174 25.85-10.988 28.545z"/></symbol><symbol viewBox="0 0 480 480" id="telephone" xmlns="http://www.w3.org/2000/svg"><path d="M256 128c-8.832 0-16 7.168-16 16s7.168 16 16 16c35.296 0 64 28.704 64 64 0 8.832 7.168 16 16 16s16-7.168 16-16c0-52.928-43.072-96-96-96z"/><path d="M256 64c-8.832 0-16 7.168-16 16s7.168 16 16 16c70.592 0 128 57.408 128 128 0 8.832 7.168 16 16 16s16-7.168 16-16c0-88.224-71.776-160-160-160z"/><path d="M256 0c-8.832 0-16 7.168-16 16s7.168 16 16 16c105.888 0 192 86.112 192 192 0 8.832 7.168 16 16 16s16-7.168 16-16C480 100.48 379.488 0 256 0zm176 352c-46.464 0-90.72-10.112-131.52-30.048-3.84-1.92-8.256-2.144-12.256-.736a16.138 16.138 0 00-9.184 8.16l-25.152 52.064C188.8 345.12 134.912 291.264 98.624 226.176l52.032-25.216c3.84-1.856 6.752-5.152 8.16-9.184 1.376-4 1.12-8.416-.768-12.256C138.112 138.72 128 94.464 128 48c0-8.832-7.168-16-16-16H16C7.168 32 0 39.168 0 48c0 238.208 193.792 432 432 432 8.832 0 16-7.168 16-16v-96c0-8.832-7.168-16-16-16z"/></symbol><symbol viewBox="0 -47 512.002 512" id="twitter" xmlns="http://www.w3.org/2000/svg"><path d="M191.012 419.043c-22.14 0-44.93-1.793-67.856-5.387-40.379-6.336-81.254-27.457-92.82-33.781L0 363.289l32.844-10.8c35.902-11.805 57.742-19.13 84.777-30.598-27.07-13.11-47.933-36.692-57.976-67.176l-7.641-23.195 6.266.957A113.939 113.939 0 0144 214.883c-12.934-19.645-19.781-43.649-18.324-64.219l1.437-20.246 12.121 4.695a113.316 113.316 0 01-10.98-30.777c-5.293-26.36-.863-54.363 12.476-78.852L51.29 6.102l14.12 16.96c44.66 53.649 101.227 85.473 168.363 94.79-2.742-18.903-.687-37.145 6.114-53.497 7.918-19.039 22.004-35.183 40.722-46.69 20.79-12.778 46-18.97 70.989-17.435 26.511 1.63 50.582 11.563 69.699 28.747 9.336-2.426 16.215-5.016 25.512-8.516 5.593-2.106 11.937-4.496 19.875-7.23l29.25-10.079-19.075 54.477a96.355 96.355 0 013.91-.254l31.235-1.414-18.461 25.23c-1.059 1.446-1.328 1.856-1.703 2.422-1.488 2.242-3.34 5.032-28.68 38.867-6.344 8.473-9.512 19.508-8.922 31.079 2.246 43.968-3.148 83.75-16.043 118.234-12.195 32.625-31.093 60.617-56.164 83.2-31.023 27.937-70.582 47.066-117.582 56.847-23.054 4.797-47.812 7.203-73.437 7.203zm0 0"/></symbol></svg>